<svg t="1723097625381" class="icon" viewBox="0 0 1084 1024" version="1.1" xmlns="http://www.w3.org/2000/svg" p-id="7030" width="200" height="200"><path d="M1045.744941 612.833882v208.594824a178.718118 178.718118 0 0 1-178.115765 178.537412H228.713412A178.718118 178.718118 0 0 1 50.597647 821.428706V180.645647A178.718118 178.718118 0 0 1 228.713412 2.168471h291.96047a36.141176 36.141176 0 0 1 0 72.282353H228.713412c-58.127059 0-105.833412 47.826824-105.833412 106.194823v640.783059c0 58.368 47.706353 106.255059 105.833412 106.255059h638.915764c58.127059 0 105.833412-47.887059 105.833412-106.255059v-208.594824a36.141176 36.141176 0 1 1 72.282353 0zM991.954824 59.090824a167.936 167.936 0 0 1 0 236.724705l-105.712942 105.773177a230.219294 230.219294 0 0 0-16.865882-91.557647l68.186353-68.186353c35.237647-35.538824 35.237647-92.822588 0-128.301177l-2.650353-2.710588a91.015529 91.015529 0 0 0-128.301176 0l-150.829177 150.889412a91.136 91.136 0 0 0 0 128.301176l2.650353 2.710589c5.421176 5.360941 11.444706 9.999059 18.010353 13.854117l-55.115294 55.115294a162.635294 162.635294 0 0 1-17.227294-14.938353l-2.710589-2.650352a168.417882 168.417882 0 0 1 0-237.146353l150.829177-150.588236a168.176941 168.176941 0 0 1 237.025882 0l2.710589 2.710589z m-223.232 217.630117l2.650352 2.650353a168.417882 168.417882 0 0 1 0 237.146353l-150.829176 150.889412a168.176941 168.176941 0 0 1-237.025882 0l-2.650353-2.650353a168.357647 168.357647 0 0 1 0-237.146353l105.652706-105.712941c-0.722824 31.322353 5.059765 62.524235 16.865882 91.557647L435.2 481.641412a91.136 91.136 0 0 0 0 128.301176l2.710588 2.710588c35.538824 35.237647 92.762353 35.237647 128.301177 0l150.829176-150.949647c35.177412-35.538824 35.177412-92.762353 0-128.301176l-2.710588-2.710588a90.112 90.112 0 0 0-18.010353-13.793883l55.175529-55.175529c6.083765 4.577882 11.866353 9.637647 17.227295 14.998588z" fill="#000000" p-id="7031"></path></svg>